<?xml version="1.0" encoding="UTF-8"?>
<svg width="50px" height="50px" viewBox="0 0 50 50" version="1.1" xmlns="http://www.w3.org/2000/svg" xmlns:xlink="http://www.w3.org/1999/xlink">
    <!-- Generator: Sketch 40.3 (33839) - http://www.bohemiancoding.com/sketch -->
    <title>lock_on</title>
    <desc>Created with Sketch.</desc>
    <defs></defs>
    <g id="Symbols" stroke="none" stroke-width="1" fill="none" fill-rule="evenodd">
        <g id="logo" transform="translate(-300.000000, -759.000000)">
            <g id="lock_on" transform="translate(300.000000, 759.000000)">
                <rect id="Rectangle" fill="#000000" x="0" y="0" width="50" height="50"></rect>
                <path d="M34,20 L32.5714286,20 L32.5714286,17.1428571 C32.5714286,13.2 29.3714286,10 25.4285714,10 C21.4857143,10 18.2857143,13.2 18.2857143,17.1428571 L18.2857143,20 L16.8571429,20 C15.2857143,20 14,21.2857143 14,22.8571429 L14,37.1428571 C14,38.7142857 15.2857143,40 16.8571429,40 L34,40 C35.5714286,40 36.8571429,38.7142857 36.8571429,37.1428571 L36.8571429,22.8571429 C36.8571429,21.2857143 35.5714286,20 34,20 L34,20 Z M25.4285714,12.7142857 C27.8714286,12.7142857 29.8571429,14.7 29.8571429,17.1428571 L29.8571429,20 L21.1428571,20 L21.1428571,17.1428571 L21,17.1428571 C21,14.7 22.9857143,12.7142857 25.4285714,12.7142857 L25.4285714,12.7142857 Z M34,37.1428571 L16.8571429,37.1428571 L16.8571429,22.8571429 L34,22.8571429 L34,37.1428571 L34,37.1428571 Z M25.4285714,32.8571429 C27,32.8571429 28.2857143,31.5714286 28.2857143,30 C28.2857143,28.4285714 27,27.1428571 25.4285714,27.1428571 C23.8571429,27.1428571 22.5714286,28.4285714 22.5714286,30 C22.5714286,31.5714286 23.8571429,32.8571429 25.4285714,32.8571429 L25.4285714,32.8571429 Z" id="Shape" fill="#FFFFFF"></path>
            </g>
        </g>
    </g>
</svg>